<?xml version="1.0" encoding="UTF-8"?>
<svg width="60px" height="60px" viewBox="0 0 60 60" version="1.1" xmlns="http://www.w3.org/2000/svg" xmlns:xlink="http://www.w3.org/1999/xlink">
    <!-- Generator: Sketch 59.1 (86144) - https://sketch.com -->
    <title>Plug-in_Hybrid</title>
    <desc>Created with Sketch.</desc>
    <g id="Plug-in_Hybrid" stroke="none" stroke-width="1" fill="none" fill-rule="evenodd">
        <path d="M33.8668747,30.9819059 C35.7385878,30.9819059 36.4085969,30.4106986 36.4085969,28.8236538 C36.4085969,27.1389943 35.783816,26.6155216 33.8447865,26.6155216 L26.5414768,26.6155216 L26.5414768,30.9819059 L33.8668747,30.9819059 Z M22.0360073,22.6170699 L33.9331393,22.6170699 C39.6397868,22.6170699 41.0429142,25.1169738 41.0429142,28.570499 C41.0429142,32.0014977 39.7507538,34.8661162 33.6659771,34.8661162 L26.5414768,34.8661162 L26.5414768,39.4588381 L22.0360073,39.4588381 L22.0360073,22.6170699 Z M8,17.2536203 L8,43.7517431 L30.5052591,57 L53,43.7517431 L53,17.2536203 L30.5052591,4 L8,17.2536203 Z" id="Fill-1" fill="#009BA5"></path>
    </g>
</svg>